<svg xmlns="http://www.w3.org/2000/svg" viewBox="0 0 24 24" fill="white"><path fill-rule="evenodd" d="M4.755 10.059a7.5 7.5 0 0 1 12.548-3.364l1.903 1.941H16.5a.75.75 0 0 0 0 1.5h4.996a.75.75 0 0 0 .75-.75v-5.036a.75.75 0 0 0-1.5 0v2.43l-1.94-1.98a9 9 0 0 0-15.803 4.01.75.75 0 0 0 1.502.095Zm14.49 3.882a.75.75 0 0 0-1.504.091 7.5 7.5 0 0 1-12.548 3.364l-1.902-1.94H6a.75.75 0 0 0 0-1.501H1.003a.75.75 0 0 0-.75.75v5.036a.75.75 0 0 0 1.5 0v-2.43l1.94 1.98a9 9 0 0 0 15.803-4.01Z" clip-rule="evenodd"/></svg>
